<svg xmlns="http://www.w3.org/2000/svg" width="420.8" height="148.4" viewBox="0 0 420.8 148.4"><g id="logo-rinde-plus" transform="translate(-68 -64.7)"><g id="Grupo_5" data-name="Grupo 5"><g id="Grupo_2" data-name="Grupo 2"><g id="Grupo_1" data-name="Grupo 1"><path id="Trazado_1" data-name="Trazado 1" d="M293.7,101.6c5.3,1.3,7,5.5,7,19.3,0,4.6.4,8.1,1.7,10.5H291.8c-.5-2.7-.7-5.8-.9-16.1-.1-5.5-1.7-9.3-6.6-9.6-1.5-.1-3-.1-4.6-.1H270l-4.6,25.7h-9.8l10.9-61.7h21.3a58.391,58.391,0,0,1,8.5.4c7.6,1,13.1,5.1,13.1,13.4C309.5,93.9,302.2,99.7,293.7,101.6Zm5-16.1c0-4.8-2.8-7.1-7.2-7.7a27.949,27.949,0,0,0-5.6-.4H275L271.4,98h10.3a44.518,44.518,0,0,0,5.6-.2C293.5,97.3,298.7,93.4,298.7,85.5Z" fill="#f4f4e6"></path><path id="Trazado_2" data-name="Trazado 2" d="M310.1,131.4l8.4-47.5h9.8l-8.4,47.5Zm21.3-59.3a6.552,6.552,0,0,1-6.7,6.6,4.675,4.675,0,0,1-5-4.8,6.533,6.533,0,0,1,6.7-6.5A4.653,4.653,0,0,1,331.4,72.1Z" fill="#f4f4e6"></path><path id="Trazado_3" data-name="Trazado 3" d="M380.3,94.8c0,2.5-.2,4.4-1.2,9.7l-4.8,26.9h-9.7l4.6-25.6a46.81,46.81,0,0,0,1-8c0-4.6-2.2-8-8.5-7.9-6.9.2-13.2,5.4-15.9,20.3l-3.7,21.2h-9.8l8.3-47.5h9.8l-1.3,7.7,4.2-5.3a20.57,20.57,0,0,1,12.6-3.7C375.6,82.7,380.3,87.5,380.3,94.8Z" fill="#f4f4e6"></path><path id="Trazado_4" data-name="Trazado 4" d="M430.3,131.4h-9.7l1.3-7.4-4.6,5.1a23.863,23.863,0,0,1-12.8,3.6c-11.8,0-18-8-18-19.2,0-15,9.1-30.7,28.2-30.7,3.9,0,8.7,1.4,10.7,3.5l2.2,4.8,4.5-25.3h9.7Zm-5.2-25.8c1.3-8.1-1.5-15.8-10.8-15.8-10.8,0-17.2,11.3-17.2,22.7,0,7.9,3.7,13,10.7,13,7.3,0,14.6-4.7,16.8-17.3Z" fill="#f4f4e6"></path><path id="Trazado_5" data-name="Trazado 5" d="M453.3,110.4c-.1,1.1-.1,2.1-.1,3.1,0,8.4,4.1,12,9.8,12a13.369,13.369,0,0,0,12.8-9.5h10c-3.8,11.3-13.5,16.6-24,16.6-11,0-18.9-6.3-18.9-18.9,0-14.9,8.7-31,27-31,12.2,0,18.9,7.5,18.9,18.1a34.836,34.836,0,0,1-1.4,9.6Zm1.1-6.9h24.2a26.23,26.23,0,0,0,.1-2.7c0-7-3.8-11-10.1-11C460.8,89.8,456.4,96.1,454.4,103.5Z" fill="#f4f4e6"></path><path id="Trazado_6" data-name="Trazado 6" d="M309.6,165.5c0,13.4-9.9,21-20.3,22.2a64.114,64.114,0,0,1-9,.4h-9l-4.1,23.2H254.9l10.9-61.7h20.9a80.159,80.159,0,0,1,8.8.4C303.5,151,309.6,156.3,309.6,165.5Zm-13,1.4c0-4.5-2.4-6.7-5.9-7.2a40.115,40.115,0,0,0-5.5-.3h-8.9L273,178.3h8.9a41.616,41.616,0,0,0,5.4-.3C292.6,177.3,296.6,173.8,296.6,166.9Z" fill="#f4f4e6"></path><path id="Trazado_7" data-name="Trazado 7" d="M324.1,195.8a27,27,0,0,0-.6,4.7c0,2.8,1.4,3.3,4.9,3l-1.4,8a38.858,38.858,0,0,1-7.1.4c-6.1,0-9.3-1.7-9.3-6.6a52.852,52.852,0,0,1,1.3-9.3l8.9-50.4h12.3Z" fill="#f4f4e6"></path><path id="Trazado_8" data-name="Trazado 8" d="M378.3,211.3H366l1.3-7.3-4.7,5.3a21.019,21.019,0,0,1-12.1,3.3c-9.7,0-14.4-5-14.4-12.2a47.581,47.581,0,0,1,1.1-9.5l4.9-27.1h12.3l-4.6,24.9a49.858,49.858,0,0,0-.9,7.8c0,4.4,2,7.4,7.6,7.3,6.2-.1,11.6-5.3,14-18.5l3.8-21.5h12.2Z" fill="#f4f4e6"></path><path id="Trazado_9" data-name="Trazado 9" d="M430.3,177.7H418c-.4-4.4-2.5-6.9-6.3-6.9-4.4,0-6.3,2.4-6.3,5.3,0,3.7,2.5,5.3,9.1,7.4,9.3,2.9,13.6,7,13.6,14.4,0,9.3-8.2,15.2-20.7,15.2-13.2,0-19.8-6.5-20.2-15.7h12.3c.5,5.5,4,7.6,8.5,7.6,4.1,0,7.1-2.1,7.1-5.9,0-3.4-2.4-5.4-10-8-7.6-2.5-12.7-5.5-12.7-13.5s6.7-14.9,19.7-14.9C424.7,162.7,429.9,169.1,430.3,177.7Z" fill="#f4f4e6"></path></g></g><g id="Grupo_4" data-name="Grupo 4"><g id="Grupo_3" data-name="Grupo 3"><path id="Trazado_10" data-name="Trazado 10" d="M214.7,133.8a46.174,46.174,0,0,0,10.7-30.3,40,40,0,0,0-10.1-27.4c-6.7-7.6-17.3-11.4-31.9-11.4h-84L68,212.5h45.9l12.6-60.1h2.4a16.68,16.68,0,0,1,10,3c2.8,2,6.9,9.4,12.4,22,5.5,12.7,10.2,24.4,14.3,35h48.3q-19.35-50.85-33.3-62.1C196.2,148,207.6,142.5,214.7,133.8Zm-40.3-21.9-43.3,22.2,8-41s20.1.2,29.9,0,18.4,11,19.7,18.5Z" fill="#f2cd00"></path></g><path id="Trazado_11" data-name="Trazado 11" d="M168,99.1s-2.1,7.8-6.9,7.9c-6.9.1-6.9-7.9-6.9-7.9Z" fill="#f2cd00"></path></g></g><g id="Grupo_10" data-name="Grupo 10"><g id="Grupo_7" data-name="Grupo 7"><g id="Grupo_6" data-name="Grupo 6"><path id="Trazado_12" data-name="Trazado 12" d="M293.7,101.6c5.3,1.3,7,5.5,7,19.3,0,4.6.4,8.1,1.7,10.5H291.8c-.5-2.7-.7-5.8-.9-16.1-.1-5.5-1.7-9.3-6.6-9.6-1.5-.1-3-.1-4.6-.1H270l-4.6,25.7h-9.8l10.9-61.7h21.3a58.391,58.391,0,0,1,8.5.4c7.6,1,13.1,5.1,13.1,13.4C309.5,93.9,302.2,99.7,293.7,101.6Zm5-16.1c0-4.8-2.8-7.1-7.2-7.7a27.949,27.949,0,0,0-5.6-.4H275L271.4,98h10.3a44.518,44.518,0,0,0,5.6-.2C293.5,97.3,298.7,93.4,298.7,85.5Z" fill="#f4f4e6"></path><path id="Trazado_13" data-name="Trazado 13" d="M310.1,131.4l8.4-47.5h9.8l-8.4,47.5Zm21.3-59.3a6.552,6.552,0,0,1-6.7,6.6,4.675,4.675,0,0,1-5-4.8,6.533,6.533,0,0,1,6.7-6.5A4.653,4.653,0,0,1,331.4,72.1Z" fill="#f4f4e6"></path><path id="Trazado_14" data-name="Trazado 14" d="M380.3,94.8c0,2.5-.2,4.4-1.2,9.7l-4.8,26.9h-9.7l4.6-25.6a46.81,46.81,0,0,0,1-8c0-4.6-2.2-8-8.5-7.9-6.9.2-13.2,5.4-15.9,20.3l-3.7,21.2h-9.8l8.3-47.5h9.8l-1.3,7.7,4.2-5.3a20.57,20.57,0,0,1,12.6-3.7C375.6,82.7,380.3,87.5,380.3,94.8Z" fill="#f4f4e6"></path><path id="Trazado_15" data-name="Trazado 15" d="M430.3,131.4h-9.7l1.3-7.4-4.6,5.1a23.863,23.863,0,0,1-12.8,3.6c-11.8,0-18-8-18-19.2,0-15,9.1-30.7,28.2-30.7,3.9,0,8.7,1.4,10.7,3.5l2.2,4.8,4.5-25.3h9.7Zm-5.2-25.8c1.3-8.1-1.5-15.8-10.8-15.8-10.8,0-17.2,11.3-17.2,22.7,0,7.9,3.7,13,10.7,13,7.3,0,14.6-4.7,16.8-17.3Z" fill="#f4f4e6"></path><path id="Trazado_16" data-name="Trazado 16" d="M453.3,110.4c-.1,1.1-.1,2.1-.1,3.1,0,8.4,4.1,12,9.8,12a13.369,13.369,0,0,0,12.8-9.5h10c-3.8,11.3-13.5,16.6-24,16.6-11,0-18.9-6.3-18.9-18.9,0-14.9,8.7-31,27-31,12.2,0,18.9,7.5,18.9,18.1a34.836,34.836,0,0,1-1.4,9.6Zm1.1-6.9h24.2a26.23,26.23,0,0,0,.1-2.7c0-7-3.8-11-10.1-11C460.8,89.8,456.4,96.1,454.4,103.5Z" fill="#f4f4e6"></path><path id="Trazado_17" data-name="Trazado 17" d="M309.6,165.5c0,13.4-9.9,21-20.3,22.2a64.114,64.114,0,0,1-9,.4h-9l-4.1,23.2H254.9l10.9-61.7h20.9a80.159,80.159,0,0,1,8.8.4C303.5,151,309.6,156.3,309.6,165.5Zm-13,1.4c0-4.5-2.4-6.7-5.9-7.2a40.115,40.115,0,0,0-5.5-.3h-8.9L273,178.3h8.9a41.616,41.616,0,0,0,5.4-.3C292.6,177.3,296.6,173.8,296.6,166.9Z" fill="#f4f4e6"></path><path id="Trazado_18" data-name="Trazado 18" d="M324.1,195.8a27,27,0,0,0-.6,4.7c0,2.8,1.4,3.3,4.9,3l-1.4,8a38.858,38.858,0,0,1-7.1.4c-6.1,0-9.3-1.7-9.3-6.6a52.852,52.852,0,0,1,1.3-9.3l8.9-50.4h12.3Z" fill="#f4f4e6"></path><path id="Trazado_19" data-name="Trazado 19" d="M378.3,211.3H366l1.3-7.3-4.7,5.3a21.019,21.019,0,0,1-12.1,3.3c-9.7,0-14.4-5-14.4-12.2a47.581,47.581,0,0,1,1.1-9.5l4.9-27.1h12.3l-4.6,24.9a49.858,49.858,0,0,0-.9,7.8c0,4.4,2,7.4,7.6,7.3,6.2-.1,11.6-5.3,14-18.5l3.8-21.5h12.2Z" fill="#f4f4e6"></path><path id="Trazado_20" data-name="Trazado 20" d="M430.3,177.7H418c-.4-4.4-2.5-6.9-6.3-6.9-4.4,0-6.3,2.4-6.3,5.3,0,3.7,2.5,5.3,9.1,7.4,9.3,2.9,13.6,7,13.6,14.4,0,9.3-8.2,15.2-20.7,15.2-13.2,0-19.8-6.5-20.2-15.7h12.3c.5,5.5,4,7.6,8.5,7.6,4.1,0,7.1-2.1,7.1-5.9,0-3.4-2.4-5.4-10-8-7.6-2.5-12.7-5.5-12.7-13.5s6.7-14.9,19.7-14.9C424.7,162.7,429.9,169.1,430.3,177.7Z" fill="#f4f4e6"></path></g></g><g id="Grupo_9" data-name="Grupo 9"><g id="Grupo_8" data-name="Grupo 8"><path id="Trazado_21" data-name="Trazado 21" d="M214.7,133.8a46.174,46.174,0,0,0,10.7-30.3,40,40,0,0,0-10.1-27.4c-6.7-7.6-17.3-11.4-31.9-11.4h-84L68,212.5h45.9l12.6-60.1h2.4a16.68,16.68,0,0,1,10,3c2.8,2,6.9,9.4,12.4,22,5.5,12.7,10.2,24.4,14.3,35h48.3q-19.35-50.85-33.3-62.1C196.2,148,207.6,142.5,214.7,133.8Zm-40.3-21.9-43.3,22.2,8-41s20.1.2,29.9,0,18.4,11,19.7,18.5Z" fill="#e5bd13"></path></g><path id="Trazado_22" data-name="Trazado 22" d="M168,99.1s-2.1,7.8-6.9,7.9c-6.9.1-6.9-7.9-6.9-7.9Z" fill="#e5bd13"></path></g></g></g></svg>